# xmcd
#
# Track frame offsets:
#	150
#	5540
#	11349
#	15436
#	20590
#	26080
#	32462
#	39021
#	46792
#	53424
#	59711
#	64906
#	73929
#	79946
#	85495
#	91142
#	96524
#	102333
#	106382
#	111260
#	117140
#	123201
#	130173
#	137736
#	144329
#	150800
#	156532
#	165988
#	171995
#	177239
#
# Disc length: 2435 seconds
#
# Revision: 1
# Processed by: cddbd v1.5.2PL0 Copyright (c) Steve Scherf et al.
# Submitted via: audiograbber 1.83.01
#
DISCID=8009811e
DTITLE=Jean-Marc Allerme - Cello Party
DYEAR=1999
DGENRE=Cello learning
TTITLE0=With Gab
TTITLE1=Care Free
TTITLE2=Two stomp for you
TTITLE3=Robert's tune
TTITLE4=Around it
TTITLE5=Goodbye Kate
TTITLE6=One note for you
TTITLE7=In the emilie's eyes
TTITLE8=for a blue note
TTITLE9=As she like it
TTITLE10=I prefer the blue
TTITLE11=Ballad for jodie
TTITLE12=I'll be in the show
TTITLE13=Leave me here
TTITLE14=My friend Gabriell
TTITLE15=With gab - pb
TTITLE16=Care free - pb
TTITLE17=Two stomp for you - pb
TTITLE18=Robert's tune - pb
TTITLE19=Around it - pb
TTITLE20=Goodbye kate - pb
TTITLE21=One note for you - pb
TTITLE22=In the emilie's eyes - pb
TTITLE23=for a blue note - pb
TTITLE24=As she like it - pb
TTITLE25=I prefer the blue - pb
TTITLE26=Ballad for jodie - pb
TTITLE27=I'll be in the show - pb
TTITLE28=Leave me here - pb
TTITLE29=My friend Gabriell - pb
EXTD=
EXTT0=
EXTT1=
EXTT2=
EXTT3=
EXTT4=
EXTT5=
EXTT6=
EXTT7=
EXTT8=
EXTT9=
EXTT10=
EXTT11=
EXTT12=
EXTT13=
EXTT14=
EXTT15=
EXTT16=
EXTT17=
EXTT18=
EXTT19=
EXTT20=
EXTT21=
EXTT22=
EXTT23=
EXTT24=
EXTT25=
EXTT26=
EXTT27=
EXTT28=
EXTT29=
PLAYORDER=
